<svg width="35" height="34" viewBox="0 0 35 34" fill="none" xmlns="http://www.w3.org/2000/svg">
<path d="M7.78758 9.15975C7.97999 8.82573 8.25777 8.54888 8.59245 8.35762C8.92713 8.16635 9.30666 8.06754 9.69212 8.07132L25.3088 8.07132C25.6942 8.06754 26.0738 8.16635 26.4085 8.35762C26.7431 8.54889 27.0209 8.82573 27.2133 9.15976C27.4011 9.48109 27.5 9.84656 27.5 10.2187C27.5 10.5909 27.4011 10.9564 27.2133 11.2777L19.4068 24.838C19.2116 25.1702 18.9331 25.4457 18.5987 25.6371C18.2643 25.8285 17.8857 25.9292 17.5004 25.9292C17.1152 25.9292 16.7366 25.8285 16.4022 25.6371C16.0678 25.4457 15.7892 25.1702 15.5941 24.838L7.78579 11.2777C7.59832 10.9562 7.49969 10.5906 7.50001 10.2185C7.50032 9.84632 7.59957 9.48093 7.78758 9.15975Z" fill="black"/>
</svg>
