<svg width="29" height="30" viewBox="0 0 29 30" fill="none" xmlns="http://www.w3.org/2000/svg">
<path d="M14.5 1C22.232 1 28.5 7.26801 28.5 15C28.5 22.732 22.232 29 14.5 29C6.76801 29 0.5 22.732 0.5 15C0.5 7.26801 6.76801 1 14.5 1Z" stroke="#FCF6F5"/>
<path d="M9.79234 6.6H14.9123C17.9657 6.6 19.4923 7.77333 19.4923 10.12V10.54C19.4923 10.86 19.4523 11.1733 19.3723 11.48C19.2923 11.7733 19.159 12.0467 18.9723 12.3C18.799 12.5533 18.559 12.78 18.2523 12.98C17.959 13.1667 17.599 13.3133 17.1723 13.42C18.0523 13.5533 18.7657 13.8867 19.3123 14.42C19.8723 14.9533 20.1523 15.72 20.1523 16.72V17.22C20.1523 18.4067 19.7723 19.34 19.0123 20.02C18.2657 20.6867 17.1057 21.02 15.5323 21.02H9.79234V6.6ZM11.7723 19.3H14.7923C15.3523 19.3 15.839 19.2733 16.2523 19.22C16.679 19.1533 17.0257 19.04 17.2923 18.88C17.5723 18.72 17.779 18.5067 17.9123 18.24C18.0457 17.96 18.1123 17.6067 18.1123 17.18V16.74C18.1123 16.3 18.0523 15.9267 17.9323 15.62C17.8123 15.3133 17.6057 15.06 17.3123 14.86C17.019 14.66 16.6323 14.52 16.1523 14.44C15.6723 14.3467 15.0723 14.3 14.3523 14.3H11.7723V19.3ZM11.7723 8.3V12.68H14.3323C14.8257 12.68 15.2657 12.6533 15.6523 12.6C16.0523 12.5467 16.3857 12.44 16.6523 12.28C16.919 12.12 17.119 11.9 17.2523 11.62C17.399 11.34 17.4723 10.9733 17.4723 10.52V10.16C17.4723 9.73333 17.4057 9.4 17.2723 9.16C17.1523 8.90667 16.9523 8.72 16.6723 8.6C16.4057 8.46667 16.0657 8.38667 15.6523 8.36C15.239 8.32 14.7523 8.3 14.1923 8.3H11.7723Z" fill="#FCF6F5"/>
</svg>
