<svg width="28" height="28" viewBox="0 0 28 28" fill="none" xmlns="http://www.w3.org/2000/svg">
<rect x="0.5" y="0.5" width="27" height="27" rx="13.5" stroke="#FCF6F5"/>
<path d="M9.29234 6.1H14.4123C17.4657 6.1 18.9923 7.27333 18.9923 9.62V10.04C18.9923 10.36 18.9523 10.6733 18.8723 10.98C18.7923 11.2733 18.659 11.5467 18.4723 11.8C18.299 12.0533 18.059 12.28 17.7523 12.48C17.459 12.6667 17.099 12.8133 16.6723 12.92C17.5523 13.0533 18.2657 13.3867 18.8123 13.92C19.3723 14.4533 19.6523 15.22 19.6523 16.22V16.72C19.6523 17.9067 19.2723 18.84 18.5123 19.52C17.7657 20.1867 16.6057 20.52 15.0323 20.52H9.29234V6.1ZM11.2723 18.8H14.2923C14.8523 18.8 15.339 18.7733 15.7523 18.72C16.179 18.6533 16.5257 18.54 16.7923 18.38C17.0723 18.22 17.279 18.0067 17.4123 17.74C17.5457 17.46 17.6123 17.1067 17.6123 16.68V16.24C17.6123 15.8 17.5523 15.4267 17.4323 15.12C17.3123 14.8133 17.1057 14.56 16.8123 14.36C16.519 14.16 16.1323 14.02 15.6523 13.94C15.1723 13.8467 14.5723 13.8 13.8523 13.8H11.2723V18.8ZM11.2723 7.8V12.18H13.8323C14.3257 12.18 14.7657 12.1533 15.1523 12.1C15.5523 12.0467 15.8857 11.94 16.1523 11.78C16.419 11.62 16.619 11.4 16.7523 11.12C16.899 10.84 16.9723 10.4733 16.9723 10.02V9.66C16.9723 9.23333 16.9057 8.9 16.7723 8.66C16.6523 8.40667 16.4523 8.22 16.1723 8.1C15.9057 7.96667 15.5657 7.88667 15.1523 7.86C14.739 7.82 14.2523 7.8 13.6923 7.8H11.2723Z" fill="#FCF6F5"/>
</svg>
