<svg width="49" height="49" viewBox="0 0 49 49" fill="none" xmlns="http://www.w3.org/2000/svg">
<g clip-path="url(#clip0_306_1687)">
<path d="M47.7107 12.8709C47.4394 11.8498 46.9045 10.9178 46.1598 10.1683C45.415 9.41872 44.4865 8.87794 43.4671 8.60003C39.7144 7.59094 24.7144 7.59094 24.7144 7.59094C24.7144 7.59094 9.71436 7.59094 5.96163 8.60003C4.94222 8.87794 4.01367 9.41872 3.26893 10.1683C2.52419 10.9178 1.98937 11.8498 1.71799 12.8709C0.714356 16.64 0.714355 24.5 0.714355 24.5C0.714355 24.5 0.714356 32.36 1.71799 36.1291C1.98937 37.1503 2.52419 38.0823 3.26893 38.8318C4.01367 39.5813 4.94222 40.1221 5.96163 40.4C9.71436 41.4091 24.7144 41.4091 24.7144 41.4091C24.7144 41.4091 39.7144 41.4091 43.4671 40.4C44.4865 40.1221 45.415 39.5813 46.1598 38.8318C46.9045 38.0823 47.4394 37.1503 47.7107 36.1291C48.7144 32.36 48.7144 24.5 48.7144 24.5C48.7144 24.5 48.7144 16.64 47.7107 12.8709Z" fill="#FF0302"/>
<path d="M19.8052 31.6373V17.3628L32.3506 24.5001L19.8052 31.6373Z" fill="white"/>
</g>
<defs>
<clipPath id="clip0_306_1687">
<rect width="48" height="48" fill="white" transform="translate(0.666748 0.5)"/>
</clipPath>
</defs>
</svg>
