<svg width="34" height="34" viewBox="0 0 34 34" fill="none" xmlns="http://www.w3.org/2000/svg">
<path d="M26.7124 24.8407C26.52 25.1748 26.2422 25.4516 25.9076 25.6429C25.5729 25.8341 25.1933 25.9329 24.8079 25.9292L9.19122 25.9292C8.80576 25.9329 8.42623 25.8341 8.09155 25.6429C7.75687 25.4516 7.47909 25.1748 7.28669 24.8407C7.09894 24.5194 7 24.1539 7 23.7818C7 23.4096 7.09894 23.0441 7.28669 22.7228L15.0932 9.16246C15.2884 8.83024 15.5669 8.55477 15.9013 8.36338C16.2357 8.17198 16.6143 8.07129 16.9996 8.07129C17.3848 8.07129 17.7634 8.17198 18.0978 8.36338C18.4322 8.55477 18.7108 8.83024 18.9059 9.16246L26.7142 22.7228C26.9017 23.0443 27.0003 23.4098 27 23.782C26.9997 24.1542 26.9004 24.5196 26.7124 24.8407Z" fill="#FCF6F5"/>
</svg>
