<svg width="31" height="31" viewBox="0 0 31 31" fill="none" xmlns="http://www.w3.org/2000/svg">
<path d="M4.3308 11.561C5.17232 7.97347 7.97347 5.17231 11.561 4.3308C14.1518 3.72307 16.8482 3.72307 19.439 4.3308C23.0265 5.17231 25.8277 7.97347 26.6692 11.561C27.2769 14.1518 27.2769 16.8482 26.6692 19.439C25.8277 23.0265 23.0265 25.8277 19.439 26.6692C16.8482 27.2769 14.1518 27.2769 11.561 26.6692C7.97347 25.8277 5.17232 23.0265 4.3308 19.439C3.72307 16.8482 3.72307 14.1518 4.3308 11.561Z" stroke="#FCF6F5" stroke-width="1.5"/>
<path d="M8.29406 12.9587C8.83698 10.6442 10.6442 8.83698 12.9587 8.29406C14.6302 7.90198 16.3698 7.90198 18.0413 8.29406C20.3558 8.83698 22.163 10.6442 22.7059 12.9587C23.098 14.6302 23.098 16.3698 22.7059 18.0413C22.163 20.3558 20.3558 22.163 18.0413 22.7059C16.3698 23.098 14.6302 23.098 12.9587 22.7059C10.6442 22.163 8.83698 20.3558 8.29406 18.0413C7.90198 16.3698 7.90198 14.6302 8.29406 12.9587Z" fill="#FCF6F5"/>
</svg>
