<svg width="558" height="53" viewBox="0 0 558 53" fill="none" xmlns="http://www.w3.org/2000/svg">
<path fill-rule="evenodd" clip-rule="evenodd" d="M99.3886 45.8067C99.3886 48.903 101.898 50.4518 106.921 50.4518V51.9522H84.0684V50.4518C89.0896 50.4518 91.6009 48.903 91.6009 45.8067V7.40719C91.6009 4.31094 89.0896 2.76282 84.0684 2.76282V1.26172H106.921V2.76282C101.898 2.76282 99.3886 4.31094 99.3886 7.40719V45.8067Z" fill="white"/>
<path fill-rule="evenodd" clip-rule="evenodd" d="M157.962 53.0002H156.801L122.818 10.8903V45.8068C122.818 48.903 125.292 50.4518 130.238 50.4518V51.9522H112.029V50.4518C116.975 50.4518 119.449 48.903 119.449 45.8068V6.95408L118.854 6.13264C117.514 4.67927 116.479 3.75382 115.753 3.35699C115.026 2.96088 113.785 2.76282 112.029 2.76282V1.26172H125.141L154.592 38.1609V7.40719C154.592 4.31094 152.118 2.76282 147.172 2.76282V1.26172H165.381V2.76282C160.435 2.76282 157.962 4.31094 157.962 7.40719V53.0002Z" fill="white"/>
<path fill-rule="evenodd" clip-rule="evenodd" d="M172.586 36.5186H174.314C175.577 40.4078 177.584 43.6409 180.331 46.2177C183.078 48.7946 186.367 50.0834 190.2 50.0834C192.786 50.0834 194.924 49.257 196.614 47.6049C198.303 45.9541 199.148 43.9201 199.148 41.5036C199.148 40.5582 199.026 39.6334 198.781 38.7272C198.12 36.4246 196.869 34.5887 195.028 33.2194C193.187 31.8508 190.299 30.0241 186.363 27.74C182.427 25.4559 179.514 23.251 177.626 21.1272C175.738 19.0041 174.795 16.2898 174.795 12.9862C174.795 9.24804 176.093 6.18528 178.689 3.79648C181.284 1.4084 184.508 0.214355 188.359 0.214355C190.512 0.214355 192.786 0.638967 195.184 1.4889C197.581 2.33813 198.979 2.76345 199.376 2.76345C200.526 2.76345 201.376 1.91351 201.924 0.214355H203.538L205.294 16.4693H203.312C202.745 14.0905 201.801 11.8954 200.479 9.88496C199.158 7.87446 197.553 6.28431 195.665 5.11306C193.778 3.94324 191.691 3.35762 189.407 3.35762C186.99 3.35762 185.051 3.99454 183.587 5.26909C182.125 6.54363 181.393 8.34182 181.393 10.6636C181.393 13.8924 184.102 17.1026 189.521 20.2922C194.599 23.3692 198.082 25.5457 199.971 26.8195C201.857 28.0934 203.486 29.7184 204.855 31.6905C206.224 33.6632 206.908 36.0841 206.908 38.9537C206.908 42.7111 205.453 45.9912 202.547 48.7946C199.64 51.5981 195.722 53.0001 190.795 53.0001C189.209 53.0001 187.797 52.8491 186.561 52.547C185.324 52.2449 183.899 51.8389 182.285 51.3295C180.671 50.8194 179.524 50.5643 178.844 50.5643C177.485 50.5643 176.711 51.3765 176.522 53.0001H174.908L172.586 36.5186Z" fill="white"/>
<path fill-rule="evenodd" clip-rule="evenodd" d="M231.498 45.8067C231.498 48.903 234.008 50.4518 239.03 50.4518V51.9522H216.178V50.4518C221.199 50.4518 223.71 48.903 223.71 45.8067V7.40719C223.71 4.31094 221.199 2.76282 216.178 2.76282V1.26172H239.03V2.76282C234.008 2.76282 231.498 4.31094 231.498 7.40719V45.8067Z" fill="white"/>
<path fill-rule="evenodd" clip-rule="evenodd" d="M291.006 16.4693H289.25C286.116 7.6529 280.472 3.24434 272.316 3.24434C268.257 3.24434 264.854 4.3016 262.107 6.41611C259.36 8.53062 257.34 11.4003 256.047 15.0252C254.753 18.6501 254.107 22.7658 254.107 27.3717C254.107 33.6775 255.806 39.0015 259.204 43.3438C262.603 47.6854 267.36 49.8562 273.477 49.8562C276.837 49.8562 279.697 49.3183 282.057 48.2432C283.133 47.6576 283.77 47.1667 283.968 46.7699C284.167 46.3738 284.266 45.5901 284.266 44.4196V33.0355C284.266 30.5057 283.883 28.736 283.12 27.7258C282.355 26.7162 280.491 26.2104 277.526 26.2104V24.6815H297.151V26.2104C294.848 26.2104 293.361 26.7255 292.691 27.7543C292.02 28.7837 291.685 30.5434 291.685 33.0355V47.5343C289.288 48.9129 286.215 50.1682 282.469 51.3017C278.72 52.4337 275.374 53.0001 272.429 53.0001C267.898 53.0001 263.551 52.0277 259.388 50.0834C255.225 48.1385 251.837 45.1847 249.222 41.2193C246.607 37.2553 245.301 32.4407 245.301 26.7768C245.301 21.8118 246.424 17.3007 248.67 13.2412C250.916 9.18178 254.036 5.99648 258.029 3.6832C262.022 1.37135 266.51 0.214355 271.494 0.214355C273.949 0.214355 276.743 0.638967 279.877 1.4889C283.011 2.33884 284.899 2.76345 285.541 2.76345C287.07 2.76345 288.155 1.91351 288.796 0.214355H290.411L291.006 16.4693Z" fill="white"/>
<path fill-rule="evenodd" clip-rule="evenodd" d="M340.773 24.4543V7.40647C340.773 4.31094 338.489 2.76282 333.92 2.76282V1.26172H355.273V2.76282C350.779 2.76282 348.533 4.31094 348.533 7.40647V45.8068C348.533 48.9023 350.779 50.4511 355.273 50.4511V51.9522H333.92V50.4511C338.489 50.4511 340.773 48.9023 340.773 45.8068V27.5976H317.552V45.8068C317.552 48.9023 319.799 50.4511 324.292 50.4511V51.9522H302.939V50.4511C307.433 50.4511 309.679 48.9023 309.679 45.8068V7.40647C309.679 4.31094 307.433 2.76282 302.939 2.76282V1.26172H324.292V2.76282C319.799 2.76282 317.552 4.31094 317.552 7.40647V24.4543H340.773Z" fill="white"/>
<path fill-rule="evenodd" clip-rule="evenodd" d="M393.656 51.9522H372.447V50.4518C376.92 50.4518 379.157 48.903 379.157 45.8067V4.51826H373.607C371.247 4.51826 369.449 4.67428 368.212 4.98562C366.976 5.29767 365.889 6.13692 364.955 7.50622C364.02 8.87552 363.261 11.1268 362.676 14.2601H360.949L361.402 1.26172H404.672L405.154 14.2601H403.285C402.775 11.1831 402.047 8.94605 401.104 7.54825C400.16 6.15116 399.06 5.29767 397.805 4.98562C396.55 4.67428 394.742 4.51826 392.383 4.51826H386.945V45.8067C386.945 48.903 389.182 50.4518 393.656 50.4518V51.9522Z" fill="white"/>
<path fill-rule="evenodd" clip-rule="evenodd" d="M426.035 45.0986C426.035 46.5705 426.422 47.6192 427.196 48.2426C427.969 48.8652 429.669 49.1773 432.293 49.1773C436.673 49.1773 440.066 48.3273 442.473 46.6275C444.88 44.929 446.084 41.9838 446.084 37.7933C446.084 30.5998 440.676 27.0034 429.857 27.0034H426.035V45.0986ZM432.293 23.8887C436.22 23.8887 439.25 23.0815 441.384 21.4671C443.517 19.8527 444.583 17.5266 444.583 14.4867C444.583 8.89832 441.573 5.57623 435.549 4.51826C432.604 4.36794 430.82 4.29242 430.198 4.29242C428.65 4.29242 427.568 4.44773 426.955 4.75906C426.341 5.0704 426.035 5.67953 426.035 6.58575V23.8887H432.293ZM418.247 7.40719C418.247 4.31094 415.775 2.76282 410.828 2.76282V1.26172H431.359C445.367 1.26172 452.371 5.59475 452.371 14.2601C452.371 19.9995 448.964 23.6714 442.148 25.2758V25.3891C445.792 26.0694 448.831 27.4893 451.266 29.6509C453.702 31.8138 454.92 34.603 454.92 38.0191C454.92 42.5124 453.136 45.9578 449.567 48.3558C445.999 50.7532 441.129 51.9522 434.955 51.9522H410.828V50.4518C415.775 50.4518 418.247 48.903 418.247 45.8068V7.40719Z" fill="white"/>
<path fill-rule="evenodd" clip-rule="evenodd" d="M475.019 32.2426H492.633L483.713 11.23L475.019 32.2426ZM505.178 43.0317C506.312 45.5231 507.345 47.3826 508.28 48.6101C509.214 49.8383 510.616 50.4518 512.484 50.4518V51.9529H493.001V50.4518C494.966 50.3948 496.343 50.1824 497.136 49.8141C497.929 49.4465 498.325 48.8082 498.325 47.9027C498.325 46.9394 497.702 44.9681 496.457 41.9837L493.68 35.3581H473.632C473.461 35.9238 472.952 37.2311 472.102 39.2793C471.253 41.3283 470.616 42.9576 470.191 44.1645C469.767 45.3728 469.554 46.4208 469.554 47.3085C469.554 49.4038 471.3 50.4518 474.793 50.4518V51.9529H459.586V50.4518C461.719 50.2815 463.38 49.2378 464.569 47.3227C465.759 45.4056 467.382 42.003 469.44 37.1128L484.987 0.214355H486.489L505.178 43.0317Z" fill="white"/>
<path fill-rule="evenodd" clip-rule="evenodd" d="M534.365 25.3891L544.927 8.7943C545.928 6.9441 546.429 5.78283 546.429 5.3112C546.429 5.02765 546.353 4.64151 546.202 4.14993C545.862 3.2259 544.163 2.76282 541.104 2.76282V1.26172H557.926V2.76282C555.622 3.06418 553.635 4.0509 551.965 5.72228C550.294 7.39223 548.562 9.54022 546.768 12.1641L535.979 28.7589V45.8068C535.979 48.9023 538.575 50.4511 543.766 50.4511V51.9522H520.46V50.4511C525.633 50.4511 528.22 48.9023 528.22 45.8068V29.4385L518.705 15.5339C517.422 13.6082 516.241 11.8385 515.165 10.2242C514.089 8.61049 513.102 7.26969 512.205 6.20317C511.31 5.13737 510.346 4.30097 509.317 3.69682C508.288 3.09268 507.123 2.78134 505.82 2.76282V1.26172H527.172V2.76282C523.547 2.76282 521.735 3.46101 521.735 4.85809C521.735 6.04715 522.349 7.48271 523.576 9.16263L534.365 25.3891Z" fill="white"/>
<path fill-rule="evenodd" clip-rule="evenodd" d="M16.386 0H0V52.7202L16.386 37.9507V0Z" fill="white"/>
<path fill-rule="evenodd" clip-rule="evenodd" d="M38.47 10.6865H45.3749C45.6236 10.6865 45.8594 10.7777 46.0931 10.787L57.2754 0.567811C55.7437 0.235816 54.0609 0 52.2172 0H22.084V32.8967L38.47 18.0296V10.6865Z" fill="white"/>
<path fill-rule="evenodd" clip-rule="evenodd" d="M52.3985 39.8981C51.2522 40.8884 49.2816 41.3201 46.4867 41.3201H38.4718V30.6336H46.4511C49.293 30.6336 51.2814 31.1921 52.4163 32.1354C53.5505 33.0794 54.1183 34.339 54.1183 35.8906C54.1183 37.5634 53.5448 38.9064 52.3985 39.8981ZM67.7145 29.4652C65.9348 27.2552 63.1584 25.6971 59.3847 24.7888C61.8682 23.9296 63.7555 22.7597 65.045 21.2779C66.9799 19.0572 67.9474 16.3941 67.9474 13.2886C67.9474 9.5868 66.5917 6.4813 63.8809 3.97352C62.1568 2.37909 59.9532 1.29548 57.278 0.714844L49.8209 11.66C50.0952 11.8032 50.3446 11.9614 50.5533 12.1423C51.5443 13.0022 52.0402 14.197 52.0402 15.7251C52.0402 17.373 51.5443 18.5564 50.5533 19.4277C49.5616 20.3004 47.7998 20.6595 45.2692 20.6595H43.585L21.8379 52.7191H49.8544C51.0485 52.7191 53.4729 52.4875 57.1277 52.0102C59.8741 51.6518 61.9281 51.0826 63.2895 50.2947C65.4867 49.0287 67.2186 47.3103 68.4846 45.1366C69.7506 42.9637 70.384 40.5158 70.384 37.7935C70.384 34.4494 69.4941 31.6744 67.7145 29.4652Z" fill="white"/>
</svg>
