<svg width="72" height="72" viewBox="0 0 72 72" fill="none" xmlns="http://www.w3.org/2000/svg">
<path fill-rule="evenodd" clip-rule="evenodd" d="M36.823 35.1277C36.823 37.3787 34.9979 39.2036 32.7464 39.2036C30.4942 39.2036 28.6691 37.3787 28.6691 35.1277C28.6691 32.8759 30.4942 31.0511 32.7464 31.0511C34.9979 31.0511 36.823 32.8759 36.823 35.1277ZM14.2077 33.177C15.7162 33.177 16.9399 34.3997 16.9399 35.9087C16.9399 37.417 15.7162 38.6404 14.2077 38.6404C12.6983 38.6404 11.4747 37.417 11.4747 35.9087C11.4747 34.3997 12.6983 33.177 14.2077 33.177ZM7.5 62.5C8.92242 58.8194 13.3971 50.1871 29.8235 45.8219C35.1002 44.4196 40.1958 45.5996 43.5943 40.1531C46.9928 34.7067 46.3118 24.0809 36.304 23.9558C26.2961 23.8313 21.3979 42.5823 21.3979 42.5823C21.3979 42.5823 20.2088 39.8712 17.668 32.0324C15.5918 25.6252 11.9908 29.1947 11.9908 29.1947C12.1881 23.6723 18.8887 11.8077 18.8887 11.8077C23.3187 17.4154 18.9543 14.8405 30.6341 13.023C33.5953 12.5622 36.6596 12.5497 39.6532 13.0937C42.3074 12.3885 49.583 10.4209 51.7011 9.5C51.7011 9.5 51.9986 14.8714 50.6034 18.3201C54.7257 21.9152 58.0476 27.403 59.794 35.2941C63.9921 54.2607 64.5 62.5 64.5 62.5H39.6532H7.5Z" fill="#EC891F"/>
</svg>
