<svg width="97" height="72" viewBox="0 0 97 72" fill="none" xmlns="http://www.w3.org/2000/svg">
<path fill-rule="evenodd" clip-rule="evenodd" d="M29.5337 9.3916H12.4854V62.6085L29.5337 47.6999V9.3916Z" fill="#FCF6F5"/>
<path fill-rule="evenodd" clip-rule="evenodd" d="M51.943 20.2306H59.0513C59.3072 20.2306 59.55 20.3231 59.7906 20.3325L71.3022 9.96752C69.7254 9.63078 67.9931 9.3916 66.095 9.3916H35.0745V42.7578L51.943 27.6785V20.2306Z" fill="#FCF6F5"/>
<path fill-rule="evenodd" clip-rule="evenodd" d="M66.198 49.6968C65.0306 50.6941 63.0237 51.1289 60.1773 51.1289H52.0148V40.3668H60.1411C63.0353 40.3668 65.0603 40.9293 66.2162 41.8792C67.3712 42.8299 67.9495 44.0984 67.9495 45.661C67.9495 47.3457 67.3654 48.6981 66.198 49.6968ZM81.7961 39.1901C79.9836 36.9645 77.1561 35.3954 73.3128 34.4806C75.8421 33.6153 77.7641 32.4372 79.0774 30.9449C81.048 28.7085 82.0333 26.0266 82.0333 22.8991C82.0333 19.1711 80.6526 16.0436 77.8918 13.5181C76.136 11.9124 73.8918 10.8211 71.1674 10.2363L63.5729 21.2589C63.8523 21.4031 64.1062 21.5624 64.3188 21.7447C65.3281 22.6107 65.8331 23.8139 65.8331 25.3528C65.8331 27.0124 65.3281 28.2041 64.3188 29.0816C63.3088 29.9605 61.5145 30.3221 58.9374 30.3221H57.2221L35.0745 62.6086H63.607C64.8231 62.6086 67.2922 62.3754 71.0143 61.8947C73.8113 61.5338 75.9031 60.9605 77.2896 60.167C79.5272 58.892 81.2911 57.1615 82.5804 54.9724C83.8697 52.7841 84.5147 50.3189 84.5147 47.5774C84.5147 44.2096 83.6085 41.415 81.7961 39.1901Z" fill="#FCF6F5"/>
</svg>
